<?xml version="1.0" encoding="UTF-8" standalone="no"?>
<svg width="186px" height="22px" viewBox="0 0 186 22" version="1.1" xmlns="http://www.w3.org/2000/svg" xmlns:xlink="http://www.w3.org/1999/xlink" xmlns:sketch="http://www.bohemiancoding.com/sketch/ns">
    <!-- Generator: Sketch 3.4 (15575) - http://www.bohemiancoding.com/sketch -->
    <title>logo-imagify-responsive</title>
    <desc>Created with Sketch.</desc>
    <defs></defs>
    <g id="Front-End-Desktop" stroke="none" stroke-width="1" fill="none" fill-rule="evenodd" sketch:type="MSPage">
        <g id="Imagify---Homepage" sketch:type="MSArtboardGroup" transform="translate(-351.000000, -29.000000)">
            <g id="TOP-BAR" sketch:type="MSLayerGroup" transform="translate(351.000000, 17.000000)">
                <g id="logo-imagify-responsive" transform="translate(0.000000, 12.000000)" sketch:type="MSShapeGroup">
                    <g id="Group">
                        <path d="M6.13719247,19.239982 L1.83039074,11.6098608 L3.39160637,10.6766805 L2.93400868,9.52392834 L0.161505065,11.1432706 L5.67959479,20.9142173 L9.98639653,18.3891412 C10.013314,17.9499975 10.0671491,17.5108538 10.1209841,17.0717102 L9.09811867,17.4834074 L6.13719247,19.239982 L6.13719247,19.239982 Z" id="Shape" fill="#FFFFFF"></path>
                        <path d="M4.38755427,8.01437197 L5.67959479,7.52033535 L5.38350217,6.34013673 L2.85325615,7.32820999 L6.72937771,17.7304257 L10.2824891,16.3581017 C10.4170767,15.8366186 10.6324168,15.3151355 10.8746744,14.8210989 L7.429233,16.1659763 L4.38755427,8.01437197 L4.38755427,8.01437197 Z" id="Shape" fill="#FFFFFF"></path>
                        <path d="M11.170767,4.50122262 L9.4211288,11.966665 L14.804631,10.8413593 C15.1276411,10.6766805 15.4506512,10.5394481 15.8005789,10.4296622 C16.2043415,10.2924298 16.6081042,10.1826438 17.0118669,10.1003044 C17.4963821,10.017965 18.0078148,9.96307201 18.5192475,9.96307201 L18.546165,9.96307201 L18.9499276,9.96307201 L20.1073806,9.7160537 L16.7157742,6.64204801 L15.3698987,8.34372973 L11.170767,4.50122262 L11.170767,4.50122262 Z" id="Shape" fill="#FFFFFF"></path>
                        <ellipse id="Oval" fill="#FFFFFF" cx="17.6578871" cy="4.41888318" rx="1.04978292" ry="1.0704127"></ellipse>
                        <path d="M11.4937771,13.7506862 C11.8706223,13.1743101 12.32822,12.6802735 12.8127352,12.2136833 L8.69435601,13.0645242 L6.9447178,4.44632966 L19.4075253,1.83891412 L21.130246,10.3747692 C21.5878437,10.5394481 22.0454414,10.7315734 22.4761216,10.9511453 L20.3496382,0.384250711 L5.54500724,3.4582564 L7.77916064,14.5191876 L11.4937771,13.7506862 L11.4937771,13.7506862 Z" id="Shape" fill="#FFFFFF"></path>
                        <ellipse id="Oval" fill="#00A8DC" cx="18.4384949" cy="18.7184989" rx="0.64602026" ry="0.658715505"></ellipse>
                        <path d="M18.5730825,10.7590199 C14.3470333,10.7590199 10.9015919,14.2721693 10.9015919,18.608713 C10.9015919,19.5693398 11.063097,20.4750736 11.3861071,21.3259145 L13.9701881,21.3259145 C13.593343,20.6397525 13.3510854,19.8712511 13.2703329,19.0478567 L12.43589,19.0478567 C12.1936324,19.0478567 12.0321274,18.8557313 12.0321274,18.608713 C12.0321274,18.3616947 12.2205499,18.1695693 12.43589,18.1695693 L13.2703329,18.1695693 C13.3510854,16.9893707 13.8086831,15.9464045 14.5085384,15.0955637 L13.9163531,14.4917411 C13.754848,14.3270622 13.754848,14.0525974 13.9163531,13.8879186 C14.0778582,13.7232397 14.3470333,13.7232397 14.5085384,13.8879186 L15.1007236,14.4917411 C15.9351664,13.7781326 16.9580318,13.3115425 18.1154848,13.2292031 L18.1154848,12.3509157 C18.1154848,12.1038974 18.3039074,11.911772 18.5192475,11.911772 C18.7615051,11.911772 18.9499276,12.1038974 18.9499276,12.3509157 L18.9499276,13.2292031 C19.9997106,13.3115425 20.968741,13.7232397 21.7762663,14.3545087 L22.233864,14.025151 C22.4761216,13.8330256 22.7991317,13.8604721 23.0144718,14.0800439 C23.2298119,14.2996157 23.2567294,14.65642 23.0683068,14.8759918 L19.6497829,19.8163581 C19.0306802,20.4476271 18.0616498,20.4750736 17.4156295,19.8712511 C17.388712,19.8438046 17.388712,19.8438046 17.3617945,19.8163581 C16.7426918,19.1850891 16.7426918,18.1146764 17.3617945,17.4834074 C17.442547,17.4010679 17.4963821,17.346175 17.5771346,17.291282 L17.5771346,17.291282 L20.968741,14.9308848 C20.2688857,14.4368481 19.4344428,14.1623834 18.5192475,14.1623834 C16.0966715,14.1623834 14.1586107,16.1659763 14.1586107,18.6361595 C14.1586107,19.6516792 14.4816208,20.5848595 15.0468886,21.3259145 L22.0185239,21.3259145 C22.5837916,20.5848595 22.9068017,19.6516792 22.9068017,18.6361595 C22.9068017,18.0597834 22.7991317,17.5383003 22.6107091,17.0442637 L23.2298119,16.1659763 C23.552822,16.7972454 23.7412446,17.4834074 23.7950796,18.2244623 L24.6295224,18.2244623 C24.87178,18.2244623 25.0332851,18.4165877 25.0332851,18.663606 C25.0332851,18.9106243 24.8448625,19.1027496 24.6295224,19.1027496 L23.7950796,19.1027496 C23.7412446,19.926144 23.498987,20.6946454 23.0952243,21.3808074 L25.7600579,21.3808074 C26.0561505,20.5299666 26.2445731,19.6242327 26.2445731,18.663606 C26.2176556,14.2721693 22.7991317,10.7590199 18.5730825,10.7590199 L18.5730825,10.7590199 Z" id="Shape" fill="#00A8DC"></path>
                        <path d="M37.4153401,0.384250711 L34.669754,0.384250711 C34.3736614,0.384250711 34.1044863,0.658715505 34.1044863,0.960626778 L34.1044863,20.8593243 C34.1044863,21.1612356 34.3736614,21.4357004 34.669754,21.4357004 L37.4153401,21.4357004 C37.7114327,21.4357004 37.9806078,21.1612356 37.9806078,20.8593243 L37.9806078,0.960626778 C37.9536903,0.658715505 37.6845152,0.384250711 37.4153401,0.384250711 L37.4153401,0.384250711 Z" id="Shape" fill="#FFFFFF"></path>
                        <path d="M67.4283647,0.521483108 C67.4014472,0.274464794 67.2130246,0.0823394381 66.8900145,0.0823394381 L66.4054993,0.0823394381 C66.1363242,0.0823394381 66.0017366,0.192125356 65.8940666,0.384250711 L59.4069465,14.5740805 L59.3261939,14.5740805 L52.8390738,0.384250711 C52.7583213,0.192125356 52.5698987,0.0823394381 52.3276411,0.0823394381 L51.8431259,0.0823394381 C51.5201158,0.0823394381 51.3316932,0.301911273 51.3047757,0.521483108 L47.8054993,20.7220919 C47.7516643,21.1337891 47.9939219,21.4082539 48.370767,21.4082539 L51.0356006,21.4082539 C51.3047757,21.4082539 51.5470333,21.1612356 51.5739508,20.9691102 L53.2966715,9.5788213 L53.377424,9.5788213 L58.5994211,21.3808074 C58.6801737,21.5729328 58.8416787,21.7101652 59.1108538,21.7101652 L59.6492041,21.7101652 C59.9183792,21.7101652 60.0798842,21.5729328 60.1606368,21.3808074 L65.3287988,9.5788213 L65.4095514,9.5788213 L67.1591896,20.9691102 C67.2130246,21.1886821 67.4552822,21.4082539 67.7244573,21.4082539 L70.4162084,21.4082539 C70.7930535,21.4082539 71.0353111,21.1337891 70.9545586,20.7220919 L67.4283647,0.521483108 L67.4283647,0.521483108 Z" id="Shape" fill="#FFFFFF"></path>
                        <path d="M88.6124457,0.41169719 C88.5316932,0.219571835 88.3971056,0.0823394381 88.101013,0.0823394381 L87.8049204,0.0823394381 C87.5357453,0.0823394381 87.4011577,0.219571835 87.2934877,0.41169719 L78.1146165,20.6397525 C77.9261939,21.0240032 78.1684515,21.4082539 78.6260492,21.4082539 L81.1832127,21.4082539 C81.6677279,21.4082539 81.9099855,21.1063426 82.0445731,20.8044314 L83.4981187,17.5657468 L92.3270622,17.5657468 L93.7806078,20.8044314 C93.9959479,21.2161285 94.1843705,21.4082539 94.6419682,21.4082539 L97.1991317,21.4082539 C97.6298119,21.4082539 97.8720695,21.0240032 97.7105644,20.6397525 L88.6124457,0.41169719 L88.6124457,0.41169719 Z M84.9785818,14.2172763 L87.8587554,7.60267478 L87.939508,7.60267478 L90.8735166,14.2172763 L84.9785818,14.2172763 L84.9785818,14.2172763 Z" id="Shape" fill="#FFFFFF"></path>
                        <path d="M122.259334,10.9785917 L116.606657,10.9785917 C116.283647,10.9785917 116.041389,11.2256101 116.041389,11.5549678 L116.041389,13.915365 C116.041389,14.2172763 116.283647,14.4642946 116.606657,14.4642946 L118.975398,14.4642946 L118.975398,17.0168172 C118.383213,17.2638355 117.11809,17.7578721 115.476122,17.7578721 C111.761505,17.7578721 108.854414,14.601527 108.854414,10.8688058 C108.854414,7.10863816 111.761505,3.89740007 115.449204,3.89740007 C117.064255,3.89740007 118.62547,4.50122262 119.890593,5.65397475 C120.159768,5.90099306 120.428944,5.90099306 120.644284,5.65397475 L122.474674,3.70527471 C122.716932,3.4582564 122.690014,3.10145217 122.447757,2.85443385 C120.455861,1.09785917 117.898698,0.0548929587 115.260781,0.0548929587 C109.392764,0.0548929587 104.6822,4.88547333 104.6822,10.8962523 C104.6822,16.9070313 109.392764,21.6552722 115.260781,21.6552722 C119.540666,21.6552722 122.582344,19.7065722 122.582344,19.7065722 C122.690014,19.6242327 122.824602,19.4595539 122.824602,19.2125356 L122.824602,11.5275213 C122.770767,11.2530565 122.555427,10.9785917 122.259334,10.9785917 L122.259334,10.9785917 Z" id="Shape" fill="#FFFFFF"></path>
                        <path d="M136.310275,0.384250711 L133.564689,0.384250711 C133.268596,0.384250711 132.999421,0.658715505 132.999421,0.960626778 L132.999421,20.8593243 C132.999421,21.1612356 133.268596,21.4357004 133.564689,21.4357004 L136.310275,21.4357004 C136.606368,21.4357004 136.875543,21.1612356 136.875543,20.8593243 L136.875543,0.960626778 C136.875543,0.658715505 136.606368,0.384250711 136.310275,0.384250711 L136.310275,0.384250711 Z" id="Shape" fill="#FFFFFF"></path>
                        <path d="M160.670622,0.384250711 L148.665412,0.384250711 C148.342402,0.384250711 148.100145,0.658715505 148.100145,0.960626778 L148.100145,20.8593243 C148.100145,21.1612356 148.342402,21.4357004 148.665412,21.4357004 L151.384081,21.4357004 C151.680174,21.4357004 151.949349,21.1612356 151.949349,20.8593243 L151.949349,13.2566495 L159.217077,13.2566495 C159.513169,13.2566495 159.782344,12.9821847 159.782344,12.6802735 L159.782344,10.2100903 C159.782344,9.90817905 159.513169,9.63371426 159.217077,9.63371426 L151.949349,9.63371426 L151.949349,3.97973951 L160.670622,3.97973951 C160.993632,3.97973951 161.23589,3.70527471 161.23589,3.40336344 L161.23589,0.933180298 C161.23589,0.658715505 161.02055,0.384250711 160.670622,0.384250711 L160.670622,0.384250711 Z" id="Shape" fill="#FFFFFF"></path>
                        <path d="M185.300145,0.384250711 L182.258466,0.384250711 C182.016208,0.384250711 181.881621,0.521483108 181.773951,0.658715505 L177.063386,7.5752283 L172.352822,0.658715505 C172.272069,0.548929587 172.110564,0.384250711 171.868307,0.384250711 L168.853546,0.384250711 C168.36903,0.384250711 168.15369,0.87828734 168.36903,1.26253805 L175.098408,11.3079495 L175.098408,20.8593243 C175.098408,21.1612356 175.340666,21.4357004 175.663676,21.4357004 L178.382344,21.4357004 C178.678437,21.4357004 178.947612,21.1612356 178.947612,20.8593243 L178.947612,11.2530565 L185.757742,1.23509157 C186,0.85084086 185.757742,0.384250711 185.300145,0.384250711 L185.300145,0.384250711 Z" id="Shape" fill="#FFFFFF"></path>
                    </g>
                </g>
            </g>
        </g>
    </g>
</svg>